<?xml version="1.0" standalone="no"?>
<!DOCTYPE svg PUBLIC "-//W3C//DTD SVG 20010904//EN"
 "http://www.w3.org/TR/2001/REC-SVG-20010904/DTD/svg10.dtd">
<svg version="1.0" xmlns="http://www.w3.org/2000/svg"
 width="1600.000000pt" height="1600.000000pt" viewBox="0 0 1600.000000 1600.000000"
 preserveAspectRatio="xMidYMid meet">
<metadata>
Created by potrace 1.14, written by Peter Selinger 2001-2017
</metadata>
<g transform="translate(0.000000,1600.000000) scale(0.100000,-0.100000)"
fill="#000000" stroke="none">
<path d="M9068 10079 c-10 -5 -18 -18 -17 -27 0 -14 2 -14 6 -2 4 8 13 20 22
27 19 15 13 16 -11 2z"/>
<path d="M9010 10028 c0 -15 -27 -38 -44 -38 -8 0 -18 -9 -21 -20 -3 -11 -11
-20 -17 -20 -5 0 -23 -13 -38 -30 -15 -16 -33 -30 -40 -30 -6 0 -8 -4 -5 -10
3 -5 -1 -10 -9 -10 -8 0 -21 -9 -29 -20 -8 -11 -17 -17 -20 -13 -4 3 -7 -1 -7
-10 0 -9 -5 -17 -11 -17 -7 0 -25 -13 -41 -30 -15 -16 -33 -30 -40 -30 -6 0
-9 -3 -5 -6 6 -7 -17 -34 -29 -34 -4 0 -19 -13 -35 -29 -15 -16 -29 -27 -32
-25 -2 3 -18 -11 -35 -31 -17 -19 -36 -35 -42 -35 -6 0 -8 -4 -5 -10 3 -5 1
-10 -5 -10 -6 0 -30 -18 -52 -40 -22 -22 -44 -38 -48 -35 -4 2 -13 -7 -20 -20
-7 -13 -16 -22 -20 -20 -4 2 -13 -7 -20 -21 -8 -14 -20 -22 -27 -19 -8 2 -11
0 -8 -5 3 -6 1 -10 -4 -10 -6 0 -11 -7 -11 -16 0 -9 -5 -14 -12 -12 -7 3 -27
-11 -45 -29 -19 -18 -38 -33 -44 -33 -6 0 -7 -4 -4 -10 3 -5 -1 -10 -9 -10 -9
0 -16 -5 -16 -11 0 -5 -4 -7 -10 -4 -5 3 -10 2 -10 -4 0 -11 -50 -64 -50 -53
0 4 -7 -2 -15 -12 -8 -11 -15 -16 -15 -10 0 5 -8 -3 -18 -19 -10 -15 -22 -24
-25 -20 -4 3 -7 -1 -7 -10 0 -10 -8 -17 -19 -17 -11 0 -23 -9 -26 -21 -4 -11
-9 -18 -12 -16 -2 3 -22 -11 -44 -31 -49 -46 -65 -60 -107 -94 -19 -16 -31
-28 -26 -28 4 0 -5 -10 -22 -22 -39 -31 -73 -58 -100 -84 -13 -12 -25 -19 -28
-16 -3 3 -6 -2 -6 -12 0 -9 -4 -15 -9 -12 -5 3 -12 -1 -15 -10 -3 -8 -10 -12
-16 -9 -5 3 -10 -1 -10 -9 0 -9 -3 -16 -8 -16 -4 0 -31 -22 -60 -49 -28 -26
-52 -46 -52 -43 0 2 -9 -7 -21 -22 -11 -14 -24 -24 -29 -21 -4 2 -18 -11 -31
-30 -13 -19 -29 -35 -34 -35 -6 0 -21 -13 -35 -29 -13 -17 -27 -28 -31 -25 -5
3 -16 -7 -25 -21 -9 -13 -20 -22 -25 -19 -5 3 -9 -2 -9 -10 0 -9 -4 -16 -10
-16 -5 0 -23 -14 -40 -31 -16 -18 -30 -28 -30 -23 0 5 -9 -4 -20 -21 -11 -16
-20 -26 -20 -21 0 6 -9 0 -20 -12 -12 -12 -25 -22 -30 -22 -6 0 -10 -7 -10
-17 0 -9 -3 -14 -6 -10 -4 3 -21 -9 -39 -28 -17 -19 -35 -32 -39 -28 -3 3 -6
-2 -6 -12 0 -10 -3 -15 -7 -12 -3 4 -12 -2 -20 -13 -8 -11 -21 -20 -29 -20 -8
0 -12 -4 -9 -10 3 -5 2 -10 -3 -10 -5 0 -25 -16 -45 -35 -21 -20 -37 -33 -37
-29 0 4 -16 -9 -35 -29 -20 -21 -37 -37 -39 -37 -2 0 -27 -23 -57 -51 -30 -29
-66 -59 -80 -68 -14 -9 -28 -20 -30 -26 -2 -5 -7 -9 -11 -8 -5 2 -8 -4 -8 -12
0 -8 -6 -15 -12 -15 -7 0 -30 -18 -51 -40 -20 -22 -41 -40 -46 -40 -5 0 -25
-18 -44 -39 -19 -22 -38 -37 -41 -34 -3 3 -8 -2 -12 -11 -3 -9 -10 -13 -15
-10 -5 3 -9 -2 -9 -11 0 -9 -4 -13 -10 -10 -5 3 -10 -1 -10 -10 0 -9 -5 -13
-10 -10 -6 3 -13 -1 -16 -9 -3 -8 -14 -18 -25 -21 -11 -4 -17 -11 -14 -16 4
-5 1 -9 -5 -9 -6 0 -31 -20 -56 -45 -24 -25 -44 -43 -44 -40 0 5 -56 -44 -101
-87 -16 -16 -33 -28 -39 -28 -5 0 -10 -7 -10 -15 0 -8 -3 -14 -8 -12 -4 1 -16
-7 -28 -18 -21 -21 -55 -50 -112 -97 -19 -16 -30 -28 -25 -29 4 0 1 -3 -8 -7
-15 -7 -96 -74 -177 -149 -19 -18 -39 -33 -44 -33 -5 0 -6 -4 -3 -10 3 -5 1
-10 -6 -10 -6 0 -19 -8 -28 -18 -9 -9 -44 -40 -78 -69 -34 -28 -59 -53 -56
-57 4 -3 -1 -6 -10 -6 -9 0 -17 -3 -17 -7 0 -5 -13 -17 -29 -28 -16 -10 -27
-23 -25 -27 3 -4 -1 -8 -8 -8 -8 0 -20 -8 -29 -17 -8 -10 -41 -40 -73 -68 -32
-27 -66 -57 -76 -65 -9 -8 -45 -40 -80 -70 -104 -90 -152 -133 -188 -167 -18
-18 -36 -33 -38 -33 -3 0 -15 -10 -28 -22 -13 -13 -52 -48 -86 -78 -35 -30
-84 -74 -109 -97 l-46 -43 640 0 c599 0 641 1 651 18 10 14 86 109 155 190 10
12 17 22 15 22 -2 0 10 15 28 33 18 19 46 51 62 73 16 21 34 44 39 50 6 6 21
25 35 43 14 18 35 43 48 57 12 14 22 30 22 35 0 6 5 7 10 4 6 -3 10 -2 10 4 0
6 14 26 31 46 17 19 29 35 26 35 -4 0 10 15 28 34 19 18 35 36 35 39 0 3 11
18 25 33 14 15 36 41 48 57 12 16 33 42 47 58 14 15 34 40 45 55 11 16 28 36
38 46 9 10 15 18 12 18 -2 0 6 10 18 23 31 32 67 76 98 117 15 19 36 45 48 58
12 12 18 22 14 22 -4 0 2 8 13 18 12 9 36 37 53 61 17 24 31 40 31 35 1 -5 6
1 13 12 7 12 28 41 47 64 19 22 45 53 57 68 13 15 23 31 23 35 0 5 5 5 10 2 6
-4 10 -3 9 2 -4 15 13 43 22 37 5 -3 9 0 9 5 0 11 33 54 63 80 9 8 17 19 17
22 0 8 29 45 67 85 12 13 20 24 18 24 -2 0 6 11 18 24 12 13 34 39 50 57 15
19 45 57 68 84 23 28 60 72 82 99 23 26 41 52 39 57 -1 5 5 9 13 9 8 0 15 7
15 15 0 8 7 15 16 15 8 0 13 4 9 9 -3 5 6 21 20 35 14 14 25 29 25 34 0 5 11
18 25 28 14 10 25 23 25 28 0 6 18 27 41 48 22 21 38 38 35 38 -6 0 5 14 50
64 13 15 24 30 24 33 0 3 10 14 22 24 11 11 18 19 15 19 -3 0 4 10 16 23 43
45 65 75 60 81 -4 3 2 6 12 6 10 0 16 3 13 6 -6 6 -1 14 52 72 17 18 30 37 30
42 0 6 5 10 10 10 6 0 10 7 10 16 0 8 5 12 10 9 6 -3 10 -2 10 4 0 5 11 23 25
38 31 35 36 42 58 76 10 15 23 25 29 21 6 -4 8 -3 4 4 -3 6 5 19 19 30 14 11
25 24 25 30 0 5 16 26 35 45 19 19 35 39 35 44 0 4 11 17 25 27 14 10 25 23
25 28 0 6 14 23 31 39 17 16 27 29 23 29 -5 1 0 8 11 18 26 22 95 113 95 124
0 5 5 6 10 3 6 -3 10 -1 10 6 0 6 11 22 25 35 14 13 25 27 25 32 0 6 7 12 15
16 8 3 15 12 15 20 0 7 7 16 15 20 8 3 15 13 15 21 0 9 5 13 10 10 6 -3 10 -2
10 3 0 4 9 18 20 30 12 12 18 22 15 22 -3 0 0 6 7 14 7 8 16 12 20 9 4 -2 5 4
1 13 -4 12 -3 15 5 10 7 -4 12 -1 12 9 0 9 5 13 10 10 6 -3 10 -1 10 5 0 17
26 40 35 32 5 -4 5 -1 1 5 -4 8 5 24 21 41 15 15 42 46 58 67 17 21 35 44 42
51 7 6 10 14 7 17 -3 3 4 8 15 12 12 3 21 11 21 16 0 11 15 31 43 57 9 9 17
20 17 25 0 4 11 19 25 33 29 29 30 31 10 31 -8 0 -15 -4 -15 -9z"/>
<path d="M5849 9880 c-90 -11 -125 -62 -117 -177 3 -42 10 -60 32 -83 15 -17
36 -31 47 -32 10 -1 31 -3 47 -5 15 -1 53 -5 85 -7 79 -7 97 -14 98 -39 1 -12
2 -29 3 -37 2 -24 -35 -39 -95 -40 -55 0 -89 18 -89 48 0 12 -46 22 -99 20
l-33 -1 6 -43 c7 -51 18 -72 54 -99 24 -17 44 -20 155 -21 134 -2 174 6 207
41 25 26 45 133 31 160 -3 6 -7 19 -8 29 -8 47 -65 73 -179 81 -44 3 -89 7
-99 9 -24 4 -35 34 -23 69 9 26 13 27 72 27 47 0 67 -4 79 -17 8 -10 15 -22
14 -28 -1 -5 28 -11 65 -13 l66 -3 -3 35 c-5 48 -33 93 -71 111 -33 16 -166
24 -245 15z"/>
<path d="M6425 9883 c-83 -7 -135 -25 -160 -55 -14 -17 -24 -37 -21 -44 3 -7
0 -14 -7 -17 -7 -2 -11 -49 -11 -148 0 -164 9 -195 71 -232 42 -24 47 -25 163
-28 96 -2 152 12 187 47 13 13 21 24 17 24 -3 0 -2 6 3 13 5 6 11 33 12 60 l3
47 -66 0 c-57 0 -66 -2 -66 -18 0 -38 -25 -56 -85 -59 -48 -2 -60 1 -80 21
-21 21 -23 33 -24 116 -1 112 14 147 69 156 67 11 95 2 112 -37 12 -28 15 -29
75 -27 72 3 71 2 58 80 -4 18 -16 43 -27 55 -23 25 -82 48 -102 40 -8 -3 -17
-3 -20 0 -6 7 -55 9 -101 6z"/>
<path d="M3469 9866 c-4 -50 -3 -490 1 -497 5 -7 90 -14 125 -10 6 1 9 39 8
96 -1 60 3 97 10 102 13 8 175 9 183 0 3 -3 7 -50 7 -104 l2 -98 60 -2 c37 -1
63 3 67 10 4 7 8 123 8 260 0 213 -2 247 -15 248 -59 3 -104 1 -112 -4 -5 -3
-9 -42 -8 -87 0 -44 -2 -86 -6 -92 -7 -11 -171 -14 -189 -3 -6 4 -9 44 -8 90
1 46 0 86 -3 89 -12 12 -129 14 -130 2z"/>
<path d="M4079 9860 c-63 -33 -82 -78 -84 -205 -2 -60 1 -132 6 -159 8 -46 51
-118 67 -114 4 1 20 -4 36 -11 30 -12 222 -18 263 -8 49 12 103 60 112 100 3
12 6 85 6 162 0 157 -8 185 -67 227 -30 21 -44 23 -168 25 -115 1 -140 -1
-171 -17z m251 -115 c18 -16 20 -30 20 -117 0 -55 -5 -108 -10 -118 -21 -39
-76 -54 -138 -38 -21 5 -42 10 -48 10 -13 2 -13 3 -18 108 -5 118 1 148 33
165 36 21 133 15 161 -10z"/>
<path d="M4559 9872 c0 -4 -1 -118 -3 -254 -1 -169 1 -248 8 -249 6 0 22 -2
36 -4 14 -2 39 -2 56 1 l31 4 -4 195 c-2 111 0 195 5 195 5 0 17 -29 27 -65 9
-36 20 -63 24 -60 4 2 7 -6 6 -18 -1 -12 2 -27 7 -33 5 -7 10 -20 12 -30 9
-43 60 -180 70 -186 18 -12 95 -6 106 7 17 21 70 187 63 198 -3 6 -1 7 5 3 7
-4 13 -1 13 8 2 25 17 66 49 131 l19 40 -3 -197 c-5 -221 -10 -206 75 -200 34
3 48 8 51 20 2 10 3 125 3 257 l0 239 -98 3 c-94 4 -144 -7 -132 -28 4 -5 1
-9 -5 -9 -6 0 -9 -4 -5 -9 3 -5 -1 -27 -9 -48 -8 -21 -27 -80 -42 -130 -28
-92 -40 -110 -50 -75 -3 9 -10 25 -15 34 -5 10 -9 27 -9 38 0 11 -3 20 -7 20
-5 0 -9 14 -10 31 -1 17 -6 36 -11 43 -5 6 -12 25 -15 41 -8 45 -15 74 -22 85
-7 11 -225 13 -226 2z"/>
<path d="M5305 9872 c-20 -3 -21 -9 -22 -257 l-2 -255 37 -1 c20 0 107 -1 193
-2 l156 -2 2 52 1 52 -122 3 -123 3 0 55 0 55 90 2 c50 1 100 2 113 2 19 1 22
6 22 41 0 25 -5 40 -12 41 -7 1 -51 3 -98 4 -47 1 -93 3 -103 4 -16 1 -18 8
-14 49 l4 47 109 1 c60 1 114 2 121 3 7 1 11 19 11 47 0 25 -5 47 -11 49 -14
5 -323 11 -352 7z"/>
<path d="M6894 9856 c-6 -13 -10 -35 -10 -49 1 -14 -2 -23 -6 -21 -4 3 -8 -4
-8 -15 0 -11 -4 -23 -10 -26 -5 -3 -10 -13 -10 -22 0 -19 -77 -269 -91 -295
-5 -10 -9 -28 -9 -41 0 -23 4 -24 64 -26 l64 -2 14 43 15 43 99 0 99 0 13 -40
c13 -38 29 -58 43 -50 3 3 29 5 58 6 28 1 51 3 51 5 0 3 -32 107 -76 249 -15
50 -27 94 -25 99 1 4 -3 14 -8 20 -6 7 -17 38 -25 71 -9 32 -18 61 -22 64 -3
3 -51 7 -107 8 -97 1 -103 0 -113 -21z m140 -149 c3 -12 10 -38 16 -57 10 -31
14 -50 23 -93 3 -17 -124 -15 -131 2 -5 14 45 176 62 199 10 14 20 -2 30 -51z"/>
<path d="M7330 9872 c-6 -2 -10 -97 -10 -257 l0 -253 43 -3 c23 -2 54 -3 70
-1 26 3 27 5 27 68 l0 64 33 1 c144 2 191 7 202 23 7 9 16 16 21 16 25 0 45
68 46 157 2 82 -15 126 -62 158 -38 26 -42 27 -199 28 -89 1 -166 1 -171 -1z
m267 -116 c13 -4 24 -18 28 -37 8 -36 -1 -96 -16 -105 -10 -6 -90 -16 -116
-15 -36 2 -38 5 -36 60 1 31 2 67 2 81 1 24 4 25 59 24 31 -1 67 -4 79 -8z"/>
<path d="M7847 9872 c-12 -3 -17 -14 -17 -40 -1 -20 -2 -135 -3 -255 l-2 -217
40 -1 c176 -3 332 -4 340 -2 6 2 10 25 10 51 l0 47 -122 3 -123 3 0 60 0 60
88 -1 c148 -2 137 -5 138 40 1 22 -4 41 -10 41 -6 1 -51 3 -101 4 -49 1 -96 3
-103 4 -9 1 -12 15 -10 49 l3 47 118 -1 c64 -1 117 2 118 5 5 41 2 94 -6 97
-13 5 -336 10 -358 6z"/>
<path d="M8756 9512 c-3 -3 -6 -43 -6 -89 0 -80 1 -83 23 -83 18 0 23 5 22 23
-3 36 5 47 36 47 26 0 29 -3 29 -35 0 -31 3 -35 25 -35 25 0 25 1 25 84 0 47
-4 87 -8 90 -15 9 -37 -13 -37 -36 0 -20 -5 -23 -35 -23 -32 0 -35 3 -34 27 1
25 -26 45 -40 30z"/>
<path d="M8961 9509 c-34 -13 -42 -118 -11 -149 27 -27 110 -28 133 -2 23 25
23 124 1 143 -17 14 -92 19 -123 8z m90 -36 c10 -73 -6 -109 -45 -97 -11 4
-23 8 -26 11 -5 5 -1 74 6 85 6 10 64 11 65 1z"/>
<path d="M9135 9506 c-2 -6 -5 -46 -7 -88 l-3 -78 62 0 c56 0 63 2 63 19 0 16
-8 20 -37 23 l-38 3 -1 50 c-1 28 -2 57 -3 66 -1 18 -31 22 -36 5z"/>
<path d="M9353 9511 c-5 -3 -9 -43 -8 -88 l0 -83 62 0 c81 0 100 17 101 87 2
66 -18 85 -92 88 -30 1 -59 -1 -63 -4z m107 -62 c4 -13 3 -35 -2 -49 -7 -20
-15 -26 -38 -25 -29 0 -30 1 -30 53 l0 53 32 -4 c24 -2 34 -9 38 -28z"/>
<path d="M9603 9512 c-21 -3 -27 -14 -37 -63 -2 -8 -8 -25 -13 -39 -26 -64
-26 -70 1 -70 16 0 26 6 26 15 0 11 11 15 40 15 29 0 40 -4 40 -15 0 -9 9 -15
24 -15 l25 0 -20 68 c-36 119 -31 113 -86 104z m27 -60 c0 -10 5 -23 12 -30 9
-9 7 -13 -6 -18 -24 -9 -40 10 -32 40 7 30 26 35 26 8z"/>
<path d="M9690 9512 c0 -4 14 -29 30 -57 16 -27 30 -65 30 -82 0 -26 4 -33 20
-33 11 0 20 3 21 8 4 47 12 71 38 110 16 26 29 48 27 49 -2 2 -13 5 -24 8 -17
3 -26 -4 -39 -32 -17 -37 -18 -37 -48 11 -10 17 -55 31 -55 18z"/>
<path d="M9948 9507 c-2 -7 -4 -46 -3 -87 0 -69 2 -75 22 -78 18 -3 22 2 25
30 3 29 7 33 36 36 31 3 32 2 32 -32 0 -32 3 -36 25 -36 25 0 25 1 25 85 0 49
-4 86 -10 87 -37 5 -36 6 -39 -42 -1 -16 -8 -20 -35 -20 -32 0 -35 3 -38 32
-3 31 -33 49 -40 25z"/>
<path d="M10151 9503 c-17 -11 -21 -25 -21 -73 0 -74 14 -90 79 -90 69 0 85
16 86 84 0 36 -5 60 -15 70 -21 21 -104 27 -129 9z m87 -35 c5 -7 9 -29 8 -48
-1 -33 -3 -35 -36 -35 -32 0 -35 3 -38 33 -2 18 2 40 9 48 14 17 43 18 57 2z"/>
<path d="M10331 9510 c-4 -3 -8 -42 -8 -87 0 -78 1 -83 22 -83 20 0 21 4 17
60 -2 33 0 60 4 60 5 0 18 -27 28 -60 25 -79 49 -79 77 -1 10 30 21 56 24 59
3 3 5 -23 5 -57 0 -59 1 -62 22 -59 21 3 23 8 23 78 0 95 0 96 -33 95 -40 -1
-48 -10 -61 -61 -14 -53 -20 -51 -41 13 -13 40 -19 47 -43 48 -15 0 -31 -2
-36 -5z"/>
<path d="M10575 9511 c-3 -2 -5 -42 -5 -88 l0 -83 65 0 c51 0 65 3 65 15 0 13
-19 20 -44 16 -22 -4 -44 11 -39 28 4 14 12 17 39 14 25 -3 34 0 34 12 0 10
-10 15 -29 15 -31 0 -59 24 -41 35 6 3 20 6 33 5 38 -3 47 -1 47 15 0 8 -3 15
-7 16 -32 4 -114 4 -118 0z"/>
<path d="M10748 9513 c-18 -5 -31 -43 -22 -68 8 -19 44 -35 80 -35 19 0 25 -5
22 -17 -4 -23 -46 -30 -54 -9 -3 9 -16 16 -29 16 -18 0 -21 -4 -18 -24 5 -26
27 -36 85 -36 48 0 77 37 60 75 -7 14 -18 26 -27 26 -8 1 -19 3 -25 4 -5 1
-19 3 -30 4 -29 2 -25 31 4 31 14 0 28 -4 31 -10 9 -14 45 -12 45 3 0 26 -19
39 -61 41 -24 1 -51 1 -61 -1z"/>
<path d="M9271 9422 c1 -85 2 -88 25 -90 24 -2 24 0 24 88 0 90 0 90 -26 90
l-25 0 2 -88z"/>
<path d="M11498 9265 c-2 -1 -43 -5 -91 -9 -235 -16 -463 -106 -642 -251 -329
-269 -458 -727 -330 -1175 24 -86 69 -182 124 -267 158 -244 417 -410 731
-468 103 -19 311 -26 400 -13 30 4 72 10 94 13 21 3 41 7 45 10 4 2 22 7 39
10 96 17 321 122 398 187 148 123 226 217 294 353 37 75 94 225 85 225 -3 0 0
12 5 26 24 61 34 313 18 434 -11 79 -45 206 -76 275 -62 142 -179 302 -273
375 -24 19 -46 37 -49 40 -14 17 -104 72 -175 107 -134 67 -281 108 -427 118
-46 4 -102 8 -125 10 -23 1 -43 1 -45 0z m197 -557 c38 -11 79 -26 90 -34 12
-8 25 -11 28 -7 4 3 7 1 7 -5 0 -6 9 -14 20 -17 25 -8 137 -118 151 -148 6
-12 21 -42 34 -67 13 -25 24 -53 24 -62 1 -10 5 -18 9 -18 4 0 9 -15 10 -33 1
-19 6 -47 10 -63 11 -43 7 -151 -8 -219 -8 -33 -14 -62 -15 -65 0 -3 -6 -15
-13 -27 -7 -13 -10 -23 -6 -23 4 0 0 -8 -9 -17 -8 -10 -17 -24 -19 -32 -3 -16
-22 -43 -50 -73 -10 -10 -18 -23 -18 -30 0 -6 -3 -9 -6 -6 -3 4 -18 -6 -32
-21 -103 -103 -292 -154 -468 -127 -99 16 -193 60 -273 130 -33 28 -60 54 -60
58 -2 11 -54 88 -61 88 -3 0 -6 8 -7 18 -1 9 -10 42 -21 72 -17 48 -39 180
-34 203 1 4 4 26 6 50 3 23 6 43 7 45 1 1 2 10 4 20 6 54 70 197 99 221 9 7
13 18 9 25 -3 6 -2 8 2 3 5 -4 17 5 27 20 10 16 18 25 18 20 0 -4 13 6 30 21
35 34 168 102 199 102 12 0 21 4 21 8 0 4 51 8 113 9 90 2 128 -2 182 -19z"/>
<path d="M5188 9212 c-148 -1 -268 -5 -268 -8 0 -5 12 -20 38 -49 7 -8 10 -15
6 -15 -4 0 7 -13 24 -30 18 -16 29 -30 26 -30 -4 0 4 -9 17 -20 13 -10 21 -19
18 -20 -4 0 13 -21 37 -47 24 -26 44 -53 44 -61 0 -7 5 -10 10 -7 6 3 10 -1
10 -10 0 -9 4 -13 10 -10 5 3 12 -6 16 -20 3 -13 10 -23 14 -20 5 3 11 -4 15
-15 3 -11 11 -20 16 -20 5 0 9 -7 9 -16 0 -8 4 -13 9 -9 5 3 12 -3 15 -13 3
-10 22 -35 41 -55 19 -20 35 -42 35 -48 0 -5 5 -7 10 -4 6 3 10 2 10 -4 0 -5
11 -22 25 -37 13 -14 22 -32 18 -38 -3 -6 -3 -8 2 -4 8 8 35 -15 35 -30 0 -6
7 -12 15 -16 8 -3 15 -11 15 -17 0 -7 16 -28 36 -46 20 -18 33 -33 28 -33 -5
0 -1 -5 9 -11 9 -5 17 -17 17 -24 0 -8 7 -15 15 -15 8 0 15 -7 15 -15 0 -9 7
-18 15 -21 8 -4 15 -11 15 -17 0 -6 10 -21 23 -32 13 -11 41 -45 64 -75 22
-30 47 -61 56 -69 10 -7 17 -20 17 -28 0 -8 3 -12 8 -10 4 2 17 -7 29 -20 12
-13 19 -23 16 -23 -4 0 3 -9 15 -20 12 -12 22 -25 22 -31 0 -6 5 -7 12 -3 7 5
9 2 5 -9 -4 -10 1 -18 14 -22 10 -4 19 -13 19 -20 0 -8 6 -18 14 -22 30 -18
50 -91 22 -80 -10 4 -13 1 -9 -9 3 -8 -1 -14 -8 -14 -7 0 -22 -9 -34 -20 -48
-46 -64 -58 -69 -53 -3 4 -6 -1 -6 -10 0 -10 -5 -17 -11 -17 -6 0 -26 -15 -44
-32 -50 -50 -73 -67 -79 -61 -3 4 -6 -1 -6 -10 0 -9 -5 -17 -12 -17 -6 0 -28
-18 -49 -39 -20 -22 -40 -37 -43 -34 -3 4 -6 -1 -6 -11 0 -9 -5 -14 -10 -11
-6 3 -13 -1 -16 -9 -3 -9 -10 -13 -15 -10 -5 3 -9 -2 -9 -11 0 -9 -4 -14 -9
-11 -5 3 -11 -1 -15 -9 -3 -8 -12 -15 -20 -15 -8 0 -17 -8 -20 -18 -3 -10 -19
-25 -34 -34 -16 -10 -50 -38 -76 -63 -26 -25 -52 -43 -57 -39 -5 3 -8 0 -7 -8
2 -7 -2 -12 -9 -11 -7 2 -10 -4 -7 -12 4 -8 1 -15 -5 -15 -11 0 -39 -20 -77
-56 -13 -12 -25 -20 -27 -18 -2 2 -10 -7 -17 -21 -7 -14 -22 -25 -33 -25 -10
0 -21 -9 -24 -19 -3 -11 -18 -25 -34 -31 -16 -7 -27 -16 -24 -20 2 -4 -7 -13
-20 -20 -14 -7 -25 -17 -25 -22 0 -4 -6 -8 -14 -8 -8 0 -18 -9 -21 -20 -4 -11
-10 -18 -15 -15 -4 2 -21 -11 -37 -30 -17 -19 -36 -35 -42 -35 -7 0 -9 -5 -5
-12 5 -8 2 -9 -9 -5 -10 3 -17 2 -17 -4 0 -16 -29 -41 -40 -34 -5 3 -10 0 -10
-8 0 -8 -15 -25 -34 -38 -36 -26 -132 -110 -202 -176 -24 -23 -44 -39 -44 -35
0 4 -6 0 -13 -8 -7 -8 -41 -40 -77 -70 -35 -30 -82 -72 -103 -93 -21 -20 -42
-35 -46 -33 -4 3 -14 -6 -21 -19 -7 -14 -19 -25 -27 -25 -7 0 -13 -4 -13 -10
0 -5 -7 -10 -16 -10 -8 0 -12 -4 -9 -10 3 -5 2 -10 -3 -10 -5 0 -23 -14 -41
-30 -17 -17 -31 -27 -31 -23 0 4 -15 -9 -34 -29 -19 -20 -37 -34 -40 -30 -3 3
-6 -2 -6 -11 0 -9 -5 -17 -11 -17 -6 0 -24 -13 -39 -30 -15 -16 -32 -30 -37
-30 -5 0 -15 -9 -23 -19 -7 -11 -18 -17 -24 -14 -6 3 -7 2 -3 -3 4 -4 79 -9
165 -9 167 -2 197 5 226 47 9 12 16 18 16 13 0 -6 5 -2 11 8 6 9 14 15 20 12
5 -4 9 1 9 9 0 9 4 16 8 16 8 0 42 30 134 115 15 14 29 25 31 25 3 0 20 15 39
33 70 68 178 163 178 158 0 -3 7 3 15 13 8 11 15 17 15 14 0 -3 29 23 65 57
36 35 65 60 65 57 0 -3 16 11 35 31 19 20 35 35 35 32 0 -3 20 14 44 39 25 24
47 42 50 38 3 -3 6 2 6 12 0 9 4 15 9 12 5 -3 12 1 15 10 3 8 10 12 16 9 5 -3
10 1 10 9 0 8 9 18 20 21 11 3 20 14 20 22 0 9 3 14 6 11 5 -6 33 16 95 73 15
15 31 24 34 21 3 -3 5 3 5 12 0 12 5 16 15 12 8 -3 14 -2 13 2 -4 11 44 62 54
56 4 -3 8 2 8 11 0 9 5 13 10 10 6 -3 10 1 10 10 0 9 4 14 8 11 5 -3 23 11 41
29 18 19 37 35 42 35 6 0 7 5 3 12 -5 8 -2 9 9 5 10 -4 16 -2 14 6 -1 7 4 11
11 9 6 -1 12 5 12 14 0 8 5 12 10 9 6 -3 10 2 10 11 0 10 3 15 6 11 3 -3 16 4
29 16 48 47 90 82 98 79 4 -1 7 5 7 14 0 8 5 12 10 9 6 -3 10 2 10 11 0 10 3
14 7 11 3 -4 16 5 29 18 13 14 25 25 28 25 3 0 19 13 34 30 16 16 32 27 35 23
4 -3 7 1 7 10 0 9 4 17 9 17 5 0 28 18 52 40 24 22 48 40 52 40 5 0 6 4 2 9
-3 5 3 12 14 16 10 3 45 30 76 60 31 30 61 55 66 55 6 0 7 5 4 10 -3 6 -1 10
6 10 6 0 20 10 30 22 11 11 19 18 19 15 0 -3 11 5 25 19 14 14 25 29 25 35 0
6 4 8 9 4 6 -3 14 3 20 12 6 10 11 15 11 11 0 -4 20 13 45 38 25 24 45 42 45
39 0 -3 15 10 34 29 18 20 36 33 38 31 3 -3 11 6 18 20 8 14 19 24 26 21 6 -2
16 6 22 20 8 15 17 22 27 18 11 -5 14 -2 9 10 -4 10 -1 16 9 16 8 0 31 19 51
41 20 23 36 38 36 33 0 -5 5 -1 11 9 6 9 14 15 20 12 5 -4 9 -2 9 4 0 14 47
60 54 53 3 -3 6 0 6 5 0 6 18 24 40 41 22 16 37 32 33 35 -3 4 1 7 10 7 10 0
17 5 17 11 0 5 5 7 10 4 6 -3 10 1 10 9 0 9 27 35 60 59 33 24 57 47 53 50 -3
4 -2 7 3 7 6 0 20 9 32 20 12 12 22 19 22 16 0 -2 25 20 55 49 30 30 55 51 55
49 0 -3 20 16 45 41 25 25 50 43 55 40 6 -3 10 -1 10 5 0 13 68 80 82 80 5 0
6 5 2 12 -5 8 -2 9 10 5 9 -4 15 -3 12 1 -6 10 30 43 38 35 3 -4 6 1 6 10 0
10 4 16 9 15 5 -2 22 11 39 29 17 17 33 29 36 25 3 -3 6 2 6 11 0 10 7 17 15
17 8 0 15 4 15 8 0 18 -12 20 -29 4 -37 -35 -59 -50 -65 -45 -3 4 -6 -1 -6
-10 0 -10 -6 -17 -14 -17 -8 0 -16 -4 -18 -8 -1 -5 -23 -22 -48 -39 -25 -17
-55 -40 -66 -51 -12 -12 -25 -18 -28 -15 -3 4 -6 -1 -6 -10 0 -10 -7 -17 -15
-17 -8 0 -15 -5 -15 -11 0 -5 -4 -8 -9 -4 -6 3 -14 -3 -20 -12 -6 -10 -11 -13
-11 -8 0 6 -11 -3 -24 -18 -14 -16 -30 -26 -35 -22 -6 3 -11 -1 -11 -10 0 -11
-5 -15 -14 -12 -11 4 -13 1 -9 -10 4 -10 2 -14 -4 -10 -6 4 -20 -1 -31 -11
-11 -9 -30 -25 -42 -35 -11 -10 -25 -15 -30 -12 -6 3 -7 -1 -4 -9 3 -9 1 -16
-6 -16 -6 0 -17 -6 -24 -12 -7 -7 -28 -24 -46 -38 -18 -14 -39 -30 -45 -37 -7
-7 -15 -9 -19 -6 -3 3 -8 -2 -12 -11 -3 -9 -12 -16 -20 -16 -8 0 -14 -5 -14
-11 0 -5 -4 -7 -10 -4 -5 3 -10 -1 -10 -10 0 -9 -5 -13 -10 -10 -6 3 -13 -1
-16 -9 -3 -9 -10 -14 -14 -11 -5 3 -17 -6 -28 -20 -12 -16 -30 -25 -47 -25
-29 0 -60 24 -50 40 3 6 -1 7 -9 4 -11 -4 -16 0 -16 15 0 12 -6 21 -15 21 -8
0 -15 4 -15 10 0 5 -16 25 -35 44 -19 20 -35 38 -35 42 0 4 -12 19 -27 35 -16
15 -39 42 -53 59 -14 17 -39 46 -56 64 -18 18 -37 44 -45 57 -12 24 -32 46
-116 134 -24 25 -43 51 -43 60 0 8 -7 15 -15 15 -8 0 -15 4 -15 9 0 5 -12 22
-27 39 -16 16 -35 40 -43 52 -8 12 -27 36 -42 52 -16 17 -28 34 -28 39 0 5 -7
9 -15 9 -8 0 -15 9 -15 20 0 16 -7 20 -32 21 -132 3 -467 4 -690 1z"/>
<path d="M3460 8170 l0 -1040 679 0 678 0 2 245 2 245 -396 0 -395 0 0 159 0
159 328 1 c180 0 335 0 345 1 16 0 17 16 15 233 l-3 232 -330 1 c-181 1 -336
2 -342 3 -10 1 -13 38 -13 151 0 136 2 150 18 151 9 0 181 1 382 2 l365 2 0
248 0 247 -667 0 -668 0 0 -1040z"/>
<path d="M8570 8170 l1 -1040 289 0 290 0 0 284 0 284 218 5 c232 5 254 8 347
39 244 81 402 239 481 480 36 112 42 312 13 427 -72 281 -271 470 -574 547
-16 5 -263 10 -547 11 l-518 4 0 -1041z m948 512 c73 -39 135 -152 126 -230
-10 -94 -26 -132 -77 -183 -52 -52 -108 -66 -272 -65 l-140 1 -5 230 c-3 127
-4 241 -2 253 l4 24 161 -4 c146 -3 166 -6 205 -26z"/>
<path d="M7546 9055 c4 -8 7 -15 9 -15 1 0 8 7 15 15 10 13 9 15 -8 15 -15 0
-20 -5 -16 -15z"/>
<path d="M7531 9034 c0 -11 3 -14 6 -6 3 7 2 16 -1 19 -3 4 -6 -2 -5 -13z"/>
<path d="M7506 9031 c-4 -7 -5 -15 -2 -18 9 -9 19 4 14 18 -4 11 -6 11 -12 0z"/>
<path d="M7958 8358 c-23 -29 -47 -58 -53 -64 -5 -6 -26 -30 -45 -54 -19 -24
-39 -48 -45 -54 -5 -6 -26 -31 -46 -56 -20 -25 -47 -56 -59 -70 -12 -14 -31
-38 -43 -53 -12 -16 -27 -34 -32 -40 -39 -45 -225 -270 -245 -296 -14 -18 -32
-40 -40 -49 -9 -10 -47 -55 -85 -102 -38 -47 -72 -87 -75 -90 -3 -3 -57 -68
-120 -145 -62 -77 -116 -142 -120 -145 -3 -3 -21 -25 -40 -50 -19 -25 -37 -47
-40 -50 -3 -3 -21 -25 -40 -50 -19 -25 -40 -51 -47 -58 -7 -7 -29 -34 -50 -60
-32 -39 -147 -180 -212 -257 -9 -11 -54 -67 -101 -125 -47 -58 -87 -107 -90
-110 -3 -3 -37 -43 -75 -90 -38 -47 -89 -109 -113 -137 l-44 -53 170 0 170 0
110 163 c60 89 164 243 231 342 68 99 150 222 184 272 34 51 67 93 74 93 6 0
64 -64 129 -142 65 -79 121 -145 124 -148 3 -3 57 -68 120 -145 63 -77 119
-145 125 -151 5 -6 26 -30 47 -55 20 -24 71 -86 113 -136 l77 -93 549 0 c485
0 582 4 541 22 -4 2 -25 25 -47 53 -22 27 -50 61 -62 75 -19 23 -299 360 -378
455 -190 230 -297 361 -343 415 -29 36 -61 74 -70 85 -10 11 -37 45 -62 75
-25 30 -53 64 -62 75 -217 261 -279 337 -276 344 2 5 27 46 56 92 29 46 107
170 174 274 145 230 170 268 183 277 5 4 6 8 1 8 -5 0 -2 8 6 18 19 21 31 42
25 42 -3 0 -25 -24 -49 -52z"/>
</g>
</svg>
